<mxfile host="app.diagrams.net" modified="2024-03-10T18:19:28.141Z" agent="Mozilla/5.0 (Windows NT 10.0; Win64; x64) AppleWebKit/537.36 (KHTML, like Gecko) Chrome/122.0.0.0 Safari/537.36" version="24.0.4" etag="w0SiGQy0sFZYAUGDey3N" type="github">
  <diagram name="Page-1" id="XL_8plmNCSAAozBC3chh">
    <mxGraphModel>
      <root>
        <mxCell id="0" />
        <mxCell id="1" parent="0" />
      </root>
    </mxGraphModel>
  </diagram>
</mxfile>
